:SAMPLES-PER-SECOND 30
:FULLY-SPECIFIED
:DEGREES
524
root  -3.31072 41.0193 0.474968 4.94592 -86.5609 -3.54099
RightUpLeg  3.40722 -1.30046 -0.940929
RightLeg  -6.28995 -22.3806 3.09412
RightFoot  2.15435 -0.214889 1.96161
RightToes  -3.13588e-008 1.75238e-005 3.56266e-009
Spine  1.54293 -0.0156679 -2.85848
Spine1  -6.05455 -0.345182 3.17553
HEad  -3.7478 0.812992 3.28125
LeftShoulder1  0.460671 0.962563 -10.8689
LeftArm  -65.2676 -52.5873 -5.65482
LeftForeArm  2.28985 -12.9558 1.58574
LeftHand  -0.481176 0.0101565 10.4739
RightShoulder  0.162892 -2.19132 4.59083
RightArm  -42.0451 48.2949 6.30446
RightForeArm  -37.6778 26.7875 7.40089
RightHand  -1.09604 6.63892 -10.8738
LeftUpLeg  1.83714 1.40479 3.47147
LeftLeg  -3.96586 11.6412 -1.09744
LeftFoot  1.68969 0.407883 -3.67357
LeftToes  4.76812e-008 1.47286e-008 1.3089e-009
525
root  -3.3083 41.0197 0.48781 6.07886 -86.5935 -4.5506
RightUpLeg  3.35142 -1.14215 -0.837793
RightLeg  -6.50122 -22.5273 3.08744
RightFoot  2.29374 -0.218109 2.0137
RightToes  -3.13588e-008 1.75238e-005 3.56266e-009
Spine  1.73742 0.0821673 -2.47567
Spine1  -6.32225 -0.191858 2.66798
HEad  -4.28351 0.507086 3.69188
LeftShoulder1  0.51533 0.739025 -11.4525
LeftArm  -65.5662 -51.1514 -6.19921
LeftForeArm  4.37051 -15.1847 0.0843052
LeftHand  -0.504864 -0.255004 10.4667
RightShoulder  0.145584 -2.3194 4.47517
RightArm  -40.796 46.9522 6.1278
RightForeArm  -37.3248 27.8551 7.65678
RightHand  -1.17244 6.83373 -11.4297
LeftUpLeg  1.67885 1.41345 3.50574
LeftLeg  -3.92127 11.6616 -1.08627
LeftFoot  1.681 0.401088 -3.5905
LeftToes  4.76812e-008 1.47286e-008 1.3089e-009
526
root  -3.32316 41.0201 0.489356 5.62338 -86.3485 -3.90475
RightUpLeg  3.24172 -1.15413 -0.862325
RightLeg  -6.61444 -22.7512 3.17043
RightFoot  2.32458 -0.21488 1.96757
RightToes  -3.13588e-008 1.75238e-005 3.56266e-009
Spine  1.5171 0.012294 -2.5399
Spine1  -6.1753 -0.23991 2.53676
HEad  -4.46867 -0.039482 3.86995
LeftShoulder1  0.484346 0.896757 -11.3777
LeftArm  -65.7185 -49.9187 -6.50041
LeftForeArm  6.64568 -17.284 -1.28046
LeftHand  -0.57033 -0.727886 10.9495
RightShoulder  0.174384 -2.11912 4.80737
RightArm  -40.2005 45.2489 4.87275
RightForeArm  -38.2057 29.5998 8.13455
RightHand  -1.20522 7.05114 -11.5434
LeftUpLeg  1.49012 1.32829 3.45946
LeftLeg  -3.9896 11.5326 -1.06835
LeftFoot  1.7237 0.397975 -3.56272
LeftToes  4.76812e-008 1.47286e-008 1.3089e-009
527
root  -3.34229 41.0205 0.483398 4.87253 -85.961 -3.10123
RightUpLeg  3.30319 -1.23023 -0.908819
RightLeg  -6.7173 -23.0472 3.29876
RightFoot  2.30481 -0.216656 2.00028
RightToes  -3.13588e-008 1.75238e-005 3.56266e-009
Spine  1.18589 -0.219894 -2.9434
Spine1  -5.74974 -0.510211 2.91601
HEad  -4.8241 0.536858 3.78736
LeftShoulder1  0.452849 1.05917 -11.3169
LeftArm  -64.2446 -47.8142 -5.90799
LeftForeArm  6.01493 -19.8284 -3.37248
LeftHand  -0.565852 -0.542897 11.1902
RightShoulder  0.183054 -2.07195 5.02901
RightArm  -41.248 43.9669 4.36904
RightForeArm  -37.6966 31.9438 8.75414
RightHand  -1.17758 6.95645 -11.3679
LeftUpLeg  1.42903 1.27302 3.4247
LeftLeg  -4.03361 11.1976 -1.02985
LeftFoot  1.78335 0.395123 -3.53682
LeftToes  4.76812e-008 1.47286e-008 1.3089e-009
528
root  -3.35589 41.0209 0.475475 5.1387 -85.7172 -3.3541
RightUpLeg  3.35521 -1.26918 -0.882828
RightLeg  -6.77185 -23.2321 3.4013
RightFoot  2.26469 -0.210307 1.90751
RightToes  -3.13588e-008 1.75238e-005 3.56266e-009
Spine  2.15731 -0.145928 -3.22749
Spine1  -6.95193 -0.450111 3.14331
HEad  -4.02091 -0.344188 3.3199
LeftShoulder1  0.433422 1.16462 -11.3249
LeftArm  -67.3737 -47.3818 -6.95952
LeftForeArm  9.98769 -22.5879 -4.12226
LeftHand  -0.533819 -0.678052 10.2676
RightShoulder  0.132494 -2.47581 5.21216
RightArm  -41.6836 42.1338 4.31184
RightForeArm  -37.4571 35.2268 9.70935
RightHand  -1.14361 6.94976 -11.0576
LeftUpLeg  1.37883 1.25219 3.45673
LeftLeg  -3.99452 10.9856 -0.952562
LeftFoot  1.75125 0.404617 -3.70079
LeftToes  4.76812e-008 1.47286e-008 1.3089e-009
529
root  -3.36447 41.0214 0.463865 5.60333 -85.6523 -3.80057
RightUpLeg  3.40544 -1.27303 -0.842724
RightLeg  -6.89372 -23.2681 3.50146
RightFoot  2.28991 -0.20476 1.82711
RightToes  -3.13588e-008 1.75238e-005 3.56266e-009
Spine  1.94645 -0.11121 -3.21099
Spine1  -6.27207 -0.40477 2.94058
HEad  -4.4578 -0.485543 3.69582
LeftShoulder1  0.389065 1.42452 -11.5168
LeftArm  -66.6682 -46.2458 -6.45921
LeftForeArm  8.03577 -26.8514 -5.36946
LeftHand  -0.393706 -0.754378 7.55846
RightShoulder  0.0974775 -2.76289 5.54609
RightArm  -43.0509 39.8829 3.79931
RightForeArm  -37.3702 39.6981 11.1689
RightHand  -1.22902 7.4835 -11.3901
LeftUpLeg  1.37138 1.30364 3.5285
LeftLeg  -4.02057 10.8647 -0.970013
LeftFoot  1.77424 0.403245 -3.69305
LeftToes  4.76812e-008 1.47286e-008 1.3089e-009
530
root  -3.37873 41.0221 0.451453 5.9422 -85.6279 -3.99896
RightUpLeg  3.31018 -1.20311 -0.786286
RightLeg  -6.9731 -23.3624 3.51853
RightFoot  2.31673 -0.204867 1.83375
RightToes  -3.13588e-008 1.75238e-005 3.56266e-009
Spine  2.31127 -0.101722 -3.36393
Spine1  -6.70522 -0.394576 2.98319
HEad  -4.59516 -0.401206 3.6565
LeftShoulder1  0.414054 1.32974 -11.8962
LeftArm  -65.5346 -44.0464 -6.66379
LeftForeArm  6.78933 -33.1481 -6.98026
LeftHand  -0.517164 -1.06233 9.45711
RightShoulder  0.119461 -2.61389 5.85816
RightArm  -44.1369 36.9529 3.54828
RightForeArm  -36.2151 45.1019 13.2353
RightHand  -1.19413 7.13428 -11.3706
LeftUpLeg  1.24994 1.32226 3.57081
LeftLeg  -4.04632 10.8404 -0.989862
LeftFoot  1.79229 0.399593 -3.64709
LeftToes  4.76812e-008 1.47286e-008 1.3089e-009
531
root  -3.39798 41.0229 0.446963 6.28406 -85.6188 -4.1214
RightUpLeg  3.13632 -1.164 -0.765984
RightLeg  -7.05668 -23.4029 3.57237
RightFoot  2.32773 -0.204585 1.83302
RightToes  -3.13588e-008 1.75238e-005 3.56266e-009
Spine  2.62592 0.0859239 -3.55026
Spine1  -6.88029 -0.235209 3.21254
HEad  -4.53389 -1.4083 3.37421
LeftShoulder1  0.423303 1.36261 -12.6844
LeftArm  -64.1706 -41.3277 -6.41827
LeftForeArm  5.39155 -41.2327 -9.46391
LeftHand  -0.584282 -1.04508 10.6943
RightShoulder  0.0754511 -2.94517 6.06005
RightArm  -46.0344 33.4593 3.43492
RightForeArm  -32.2901 52.0498 16.5903
RightHand  -1.21803 7.48422 -11.2892
LeftUpLeg  1.05626 1.30728 3.59124
LeftLeg  -4.0893 10.8467 -1.00253
LeftFoot  1.79878 0.402469 -3.69991
LeftToes  4.76812e-008 1.47286e-008 1.3089e-009
532
root  -3.41566 41.0236 0.44724 6.31393 -85.7371 -3.89383
RightUpLeg  2.86922 -1.09315 -0.7644
RightLeg  -7.05863 -23.3887 3.52597
RightFoot  2.3451 -0.206407 1.86298
RightToes  -3.13588e-008 1.75238e-005 3.56266e-009
Spine  2.88404 0.220184 -3.65723
Spine1  -6.94526 -0.111365 3.27003
HEad  -5.48776 -1.21041 3.52655
LeftShoulder1  0.450821 1.28626 -13.311
LeftArm  -65.1529 -38.4622 -6.68271
LeftForeArm  8.35213 -49.8945 -12.7553
LeftHand  -0.685735 -2.04222 10.8606
RightShoulder  0.0819271 -2.92424 6.88664
RightArm  -48.7149 29.7291 2.91544
RightForeArm  -26.3245 59.8119 21.9638
RightHand  -1.2657 7.44067 -11.7564
LeftUpLeg  0.899623 1.24886 3.55374
LeftLeg  -4.25286 11.037 -1.04473
LeftFoot  1.86546 0.399983 -3.66621
LeftToes  4.76812e-008 1.47286e-008 1.3089e-009
533
root  -3.44105 41.0242 0.455706 7.13333 -85.7975 -4.41693
RightUpLeg  2.65751 -0.991255 -0.719277
RightLeg  -7.23103 -23.4245 3.56696
RightFoot  2.42491 -0.208765 1.89868
RightToes  -3.13588e-008 1.75238e-005 3.56266e-009
Spine  3.1122 0.281379 -4.02361
Spine1  -6.96973 -0.122009 3.8548
HEad  -6.74505 -0.799288 3.75039
LeftShoulder1  0.463264 1.29389 -13.9975
LeftArm  -67.1954 -35.5138 -7.69682
LeftForeArm  14.5657 -59.5305 -18.1645
LeftHand  -0.856999 -3.49752 11.4199
RightShoulder  0.0534739 -3.13431 7.42233
RightArm  -52.3182 26.8382 3.13118
RightForeArm  -17.3716 67.0093 30.5204
RightHand  -1.21682 7.86277 -10.9725
LeftUpLeg  0.643861 1.22405 3.57795
LeftLeg  -4.28625 11.1289 -1.05637
LeftFoot  1.84473 0.404885 -3.74434
LeftToes  4.76812e-008 1.47286e-008 1.3089e-009
534
root  -3.47027 41.0278 0.468008 7.66046 -85.7874 -4.64813
RightUpLeg  2.49849 -0.912709 -0.700256
RightLeg  -7.50073 -23.4879 3.66608
RightFoot  2.55754 -0.205863 1.84955
RightToes  -3.13588e-008 1.75238e-005 3.56266e-009
Spine  3.82058 0.276335 -4.00579
Spine1  -7.66865 -0.12958 3.86651
HEad  -7.25255 -0.414734 3.68819
LeftShoulder1  0.477319 1.28902 -14.6563
LeftArm  -69.0237 -32.5405 -8.56767
LeftForeArm  23.9797 -68.8742 -28.381
LeftHand  -0.695946 -2.96893 9.90797
RightShoulder  0.0800446 -2.98219 8.40677
RightArm  -56.142 23.6749 3.17085
RightForeArm  -1.25769 73.565 46.2087
RightHand  -1.23407 8.09492 -10.9373
LeftUpLeg  0.441483 1.18503 3.5763
LeftLeg  -4.44913 11.1901 -1.09626
LeftFoot  1.92338 0.405826 -3.75744
LeftToes  4.76812e-008 1.47286e-008 1.3089e-009
